# xmcd
#
# Track frame offsets:
#	150
#	18434
#	32861
#	48072
#	58968
#	76365
#	85727
#	101407
#	116346
#	137446
#
# Disc length: 1973 seconds
#
# Revision: 0
# Processed by: cddbd v1.5.1PL2 Copyright (c) Steve Scherf et al.
# Submitted via: dBpowerAMP V4.0
#
DISCID=7307b30a
DTITLE=Mariachi: Inspiración Celestial - Cantan: Agradecimiento Vol.1
DYEAR=1900
DGENRE=Mariachi
TTITLE0=Agradecimiento
TTITLE1=Te Vengo a Decir
TTITLE2=Las Cien Ovejas
TTITLE3=Crucificado
TTITLE4=Llaga Podrida
TTITLE5=Quiero Adorarte Señor
TTITLE6=El Alfarero
TTITLE7=Un Día a La Vez
TTITLE8=Más Allá del Sol
TTITLE9=Escogido Fui de Dios
EXTD=
EXTT0=
EXTT1=
EXTT2=
EXTT3=
EXTT4=
EXTT5=
EXTT6=
EXTT7=
EXTT8=
EXTT9=
PLAYORDER=
